<svg width="16" height="24" viewBox="0 0 16 24" fill="none" xmlns="http://www.w3.org/2000/svg">
<path d="M9 1C9 0.447715 8.55228 0 8 0C7.44772 0 7 0.447715 7 1L9 1ZM7.29289 23.7071C7.68342 24.0976 8.31658 24.0976 8.70711 23.7071L15.0711 17.3431C15.4616 16.9526 15.4616 16.3195 15.0711 15.9289C14.6805 15.5384 14.0474 15.5384 13.6569 15.9289L8 21.5858L2.34315 15.9289C1.95262 15.5384 1.31946 15.5384 0.928932 15.9289C0.538408 16.3195 0.538408 16.9526 0.928932 17.3431L7.29289 23.7071ZM7 1L7 23H9L9 1L7 1Z" fill="#F5F5F5"/>
</svg>
